<svg width="240" height="240" viewBox="0 0 240 240" fill="none" xmlns="http://www.w3.org/2000/svg">
<path fill-rule="evenodd" clip-rule="evenodd" d="M14.5 86.4C14.5 81.7608 18.2608 78 22.9 78H216.1C220.739 78 224.5 81.7608 224.5 86.4C224.5 91.0392 220.739 94.8 216.1 94.8H22.9C18.2608 94.8 14.5 91.0392 14.5 86.4ZM14.5 120C14.5 115.361 18.2608 111.6 22.9 111.6H216.1C220.739 111.6 224.5 115.361 224.5 120C224.5 124.639 220.739 128.4 216.1 128.4H22.9C18.2608 128.4 14.5 124.639 14.5 120ZM22.9 145.2C18.2608 145.2 14.5 148.961 14.5 153.6C14.5 158.239 18.2608 162 22.9 162H216.1C220.739 162 224.5 158.239 224.5 153.6C224.5 148.961 220.739 145.2 216.1 145.2H22.9Z" fill="#E3E0F1" fill-opacity="0.4"/>
</svg>
