<svg width="240" height="240" viewBox="0 0 240 240" fill="none" xmlns="http://www.w3.org/2000/svg">
<path fill-rule="evenodd" clip-rule="evenodd" d="M115.259 81.1799L97.864 64.427C95.8191 62.4576 95.8001 59.283 97.8532 57.3057C99.892 55.3421 103.201 55.345 105.248 57.3161L115.259 66.9581V37.044C115.259 34.2583 117.576 32 120.48 32C123.363 32 125.701 34.228 125.701 37.044V67.1189L135.879 57.3161C137.924 55.3467 141.22 55.3284 143.273 57.3057C145.312 59.2693 145.309 62.4559 143.263 64.427L125.701 81.3408V157.666L143.32 174.635C145.367 176.606 145.37 179.793 143.331 181.757C141.278 183.734 137.981 183.716 135.937 181.746L125.701 171.888V202.104C125.701 204.89 123.383 207.148 120.48 207.148C117.596 207.148 115.259 204.92 115.259 202.104V171.908L105.044 181.746C102.997 183.717 99.6883 183.72 97.6495 181.757C95.5964 179.779 95.6155 176.605 97.6603 174.635L115.259 157.686V81.1799Z" fill="#E3E0F1"/>
<path fill-rule="evenodd" clip-rule="evenodd" d="M155.639 133.919L178.733 127.218C181.448 126.43 184.192 128.001 184.874 130.769C185.55 133.518 183.901 136.385 181.183 137.173L167.892 141.03L191.454 156.13C193.854 157.523 194.646 160.661 193.201 163.178C191.765 165.677 188.682 166.589 186.256 165.181L162.555 150L165.933 163.724C166.612 166.481 164.987 169.348 162.261 170.139C159.554 170.924 156.811 169.328 156.131 166.569L150.302 142.889L84.5444 104.727L61.1531 111.514C58.4359 112.303 55.6891 110.712 55.0124 107.963C54.331 105.195 55.9878 102.347 58.7026 101.559L72.2917 97.6155L48.4697 82.3646C46.0696 80.9717 45.2777 77.8338 46.7232 75.3171C48.1587 72.8178 51.2419 71.9059 53.6681 73.3139L77.4729 88.5549L74.0825 74.7815C73.4032 72.0219 75.0479 69.1526 77.7547 68.3671C80.4804 67.5762 83.206 69.18 83.8847 71.9372L89.7257 95.6658L155.639 133.919Z" fill="#E3E0F1"/>
<path fill-rule="evenodd" clip-rule="evenodd" d="M89.4864 143.047L83.713 166.501C83.0344 169.258 80.3088 170.862 77.5831 170.071C74.8763 169.286 73.2316 166.416 73.9108 163.657L77.2337 150.158L53.6716 165.258C51.2715 166.651 48.1722 165.772 46.7267 163.255C45.2912 160.756 46.047 157.616 48.4732 156.208L72.1738 141.027L58.6609 137.106C55.9461 136.318 54.2893 133.47 54.9707 130.702C55.6474 127.953 58.3943 126.362 61.1114 127.151L84.4266 133.916L150.185 95.7533L156.032 71.9967C156.712 69.2371 159.456 67.6412 162.162 68.4266C164.888 69.2176 166.513 72.0839 165.835 74.841L162.437 88.6423L186.259 73.3913C188.659 71.9984 191.759 72.8779 193.204 75.3946C194.64 77.8939 193.884 81.034 191.458 82.442L167.653 97.6831L181.215 101.618C183.932 102.407 185.581 105.273 184.905 108.022C184.223 110.791 181.479 112.361 178.764 111.574L155.4 104.794L89.4864 143.047Z" fill="#E3E0F1"/>
</svg>
